<?xml version="1.0" standalone="no"?>
<!DOCTYPE svg PUBLIC "-//W3C//DTD SVG 20010904//EN"
 "http://www.w3.org/TR/2001/REC-SVG-20010904/DTD/svg10.dtd">
<svg version="1.0" xmlns="http://www.w3.org/2000/svg"
 width="640.000000pt" height="255.000000pt" viewBox="0 0 640.000000 255.000000"
 preserveAspectRatio="xMidYMid meet">

<g transform="translate(0.000000,255.000000) scale(0.100000,-0.100000)"
fill="#000000" stroke="none">
<path d="M856 2529 c-87 -4 -164 -10 -170 -12 -7 -3 -18 -23 -24 -44 -11 -38
-16 -42 -111 -82 -108 -46 -203 -105 -288 -177 -54 -46 -253 -284 -253 -302 0
-13 282 -313 291 -310 4 2 28 23 54 47 25 24 48 42 49 40 4 -5 26 -482 26
-554 l0 -50 -78 -29 c-90 -34 -134 -73 -153 -135 -11 -37 -10 -62 5 -170 l18
-126 -57 -58 c-179 -184 -143 -364 84 -417 37 -9 95 -11 185 -7 145 6 256 32
404 92 68 27 82 31 77 17 -28 -70 -11 -137 47 -186 79 -68 195 -70 323 -6 116
58 359 251 415 330 19 26 19 31 6 36 -11 4 -48 -24 -119 -92 -179 -172 -338
-271 -447 -281 -180 -17 -266 134 -143 248 79 75 209 128 367 151 73 10 86 15
86 31 0 20 -25 19 -165 -9 -38 -8 -74 -14 -78 -14 -5 0 7 19 26 42 19 24 42
57 50 74 20 39 34 42 167 45 102 2 105 1 108 -21 2 -12 -8 -48 -22 -80 -27
-60 -32 -95 -17 -119 14 -22 39 3 34 33 -3 13 6 45 21 74 32 64 32 91 2 166
-29 72 -24 86 42 120 65 33 81 54 99 130 18 81 31 90 106 75 71 -15 95 -8 152
41 25 22 55 40 67 40 11 0 39 -20 62 -44 57 -61 77 -69 151 -61 73 7 91 -4
100 -63 13 -90 27 -115 90 -157 36 -25 61 -50 63 -62 2 -12 -9 -45 -23 -74
-30 -59 -30 -102 1 -182 23 -57 16 -73 -46 -103 -61 -30 -85 -62 -99 -132 -16
-82 -25 -88 -111 -73 -78 14 -88 11 -159 -51 -24 -21 -48 -38 -52 -38 -5 0
-36 25 -69 55 -61 56 -66 58 -158 55 -63 -2 -80 10 -88 61 -5 30 -11 39 -26
39 -18 0 -19 -5 -13 -36 16 -89 45 -109 142 -98 l62 6 56 -56 c74 -74 102 -76
176 -10 l52 46 56 -7 c120 -17 143 -5 162 84 17 79 22 86 88 121 55 29 81 60
81 95 0 8 -12 43 -26 78 l-26 64 32 73 c44 101 41 109 -94 203 -12 8 -23 37
-32 87 -20 104 -33 115 -131 112 -65 -1 -82 2 -102 19 l-25 20 30 28 c16 16
106 99 199 186 94 87 173 163 177 170 7 11 -203 357 -220 363 -15 5 -272 -238
-283 -266 -5 -13 -32 -115 -60 -226 -27 -110 -54 -218 -60 -238 -8 -31 -14
-38 -35 -38 -19 0 -24 4 -20 18 3 9 35 136 71 281 l66 264 79 84 c135 145 190
280 196 478 1 61 8 141 14 179 6 38 8 71 6 74 -3 3 -45 11 -93 18 -502 77
-748 114 -768 114 -21 0 -25 -6 -31 -49 -9 -72 -12 -74 -80 -53 -52 16 -62 23
-82 60 l-23 42 -102 -2 c-56 0 -173 -5 -261 -9z m295 -46 c-6 -10 -23 -33 -39
-51 l-28 -34 -61 13 c-52 11 -70 10 -129 -4 l-68 -17 -43 42 c-24 23 -43 46
-43 50 0 7 85 11 313 16 100 2 107 1 98 -15z m400 5 l71 -11 -7 -36 c-15 -90
-15 -91 -43 -91 -14 0 -52 12 -84 27 -60 28 -63 33 -52 92 7 36 12 36 115 19z
m227 -34 l54 -7 -7 -61 c-4 -34 -10 -64 -14 -67 -3 -4 -42 -1 -86 5 l-80 12 2
54 c4 77 7 83 46 76 17 -3 56 -8 85 -12z m192 -29 c81 -11 78 -8 67 -78 -5
-34 -10 -63 -12 -65 -1 -1 -40 3 -86 11 l-84 13 2 34 c2 19 5 50 8 68 6 30 9
33 33 28 15 -3 47 -8 72 -11z m-598 -41 c140 -50 241 -111 363 -217 l40 -35
-109 -161 c-61 -89 -113 -161 -116 -161 -4 0 -33 20 -66 44 -32 24 -62 42 -66
40 -20 -12 -3 -36 52 -76 55 -40 59 -46 60 -83 0 -22 9 -237 20 -479 l21 -438
-26 -24 c-27 -25 -32 -63 -16 -107 l10 -25 -104 -7 c-57 -4 -108 -4 -114 -1
-5 3 -7 14 -4 25 9 35 -16 96 -55 134 -47 46 -122 73 -226 83 l-78 7 -70 108
c-63 98 -75 111 -124 135 -65 32 -101 29 -214 -15 -41 -16 -76 -28 -78 -27 -1
2 -9 142 -16 312 l-15 309 61 55 c52 48 58 57 45 68 -12 11 -24 4 -70 -38 -30
-27 -57 -50 -60 -50 -8 0 -247 290 -247 300 0 20 151 158 226 206 67 44 207
114 228 114 2 0 -1 -15 -6 -34 -17 -54 4 -90 88 -152 110 -81 142 -88 205 -43
15 10 29 19 32 19 3 0 8 -76 12 -170 7 -157 9 -170 26 -170 18 0 19 8 13 153
-3 83 -7 160 -9 170 -4 22 2 21 50 -3 65 -33 98 -18 224 99 l44 41 -6 60 c-3
33 -4 60 -2 60 2 0 37 -12 77 -26z m884 -7 c5 -4 -14 -118 -20 -125 -5 -5
-155 16 -167 24 -6 3 6 91 16 120 2 8 27 7 85 -2 46 -7 84 -15 86 -17z m-1210
-10 c8 -7 -36 -75 -67 -103 -19 -17 -21 -16 -69 31 -28 27 -50 52 -50 56 0 23
165 37 186 16z m925 -247 c73 -12 134 -22 135 -23 4 -4 -75 -250 -83 -257 -4
-4 -42 -19 -84 -32 -75 -25 -76 -25 -102 -6 l-26 19 64 82 c65 81 74 100 55
112 -5 3 -10 11 -10 16 0 9 46 5 93 -8 12 -3 17 1 17 15 0 22 -14 27 -102 37
-44 6 -62 13 -84 36 -15 16 -23 29 -17 29 5 0 70 -9 144 -20z m-119 -77 l47
-48 -111 -142 c-121 -155 -112 -150 -175 -96 l-31 28 105 153 c57 83 108 152
112 152 4 0 28 -21 53 -47z m-1592 -159 c61 -74 113 -141 116 -147 2 -7 -13
-30 -35 -51 l-40 -39 -83 89 c-46 49 -102 109 -125 134 l-41 44 41 53 c23 29
45 53 49 53 3 0 57 -61 118 -136z m2160 -302 l82 -134 -38 -39 c-21 -22 -41
-38 -45 -37 -4 2 -53 66 -110 142 l-102 140 53 47 c48 42 55 46 66 31 6 -9 48
-77 94 -150z m-1309 -736 c381 -89 64 -506 -488 -643 -147 -36 -328 -38 -415
-4 -79 31 -118 77 -118 139 0 26 9 66 20 89 19 43 109 148 118 138 3 -3 13
-53 21 -113 l17 -107 67 -3 c128 -6 360 54 519 134 82 41 203 122 238 159 l23
24 -62 96 c-33 53 -61 98 -61 101 0 8 66 3 121 -10z m-65 -152 l19 -35 -25
-20 c-184 -144 -427 -239 -676 -264 -58 -5 -62 -4 -68 17 -13 51 -8 68 23 68
58 0 209 32 310 66 117 39 254 107 333 164 29 22 56 39 59 40 3 0 14 -16 25
-36z"/>
<path d="M800 1990 c0 -17 7 -20 40 -20 33 0 40 3 40 20 0 17 -7 20 -40 20
-33 0 -40 -3 -40 -20z"/>
<path d="M810 1860 c0 -21 30 -27 64 -14 33 13 17 34 -24 34 -33 0 -40 -3 -40
-20z"/>
<path d="M3770 1050 l0 -410 40 0 40 0 0 191 c0 220 7 255 61 304 61 55 146
57 211 5 52 -40 58 -70 58 -294 l0 -206 40 0 40 0 0 213 c0 201 -1 215 -24
262 -58 127 -209 178 -328 112 -21 -11 -38 -24 -38 -29 0 -4 -4 -8 -10 -8 -6
0 -10 52 -10 135 l0 135 -40 0 -40 0 0 -410z"/>
<path d="M3552 1418 c-7 -7 -12 -24 -12 -38 0 -34 17 -50 52 -50 27 0 48 23
48 54 0 37 -61 61 -88 34z"/>
<path d="M3128 1256 c-65 -18 -97 -41 -119 -89 -34 -77 -20 -155 38 -210 31
-29 104 -47 194 -47 58 0 88 -22 96 -72 12 -75 -50 -123 -150 -116 -55 4 -64
8 -92 41 -26 30 -39 37 -69 37 -34 0 -37 -2 -31 -22 37 -120 195 -176 321
-113 68 34 99 82 99 154 -1 110 -53 153 -205 169 -83 9 -97 13 -117 37 -31 35
-30 85 2 123 50 59 179 50 220 -15 17 -27 26 -32 58 -33 43 0 44 6 17 60 -25
50 -73 86 -130 99 -56 13 -74 13 -132 -3z"/>
<path d="M3550 950 l0 -310 40 0 40 0 0 310 0 310 -40 0 -40 0 0 -310z"/>
<path d="M4638 1250 c-102 -17 -188 -84 -231 -179 -32 -68 -31 -189 3 -256 90
-184 332 -234 473 -97 l37 36 0 -57 0 -57 40 0 40 0 0 300 0 300 -40 0 -40 0
0 -46 0 -46 -37 32 c-68 60 -154 85 -245 70z m172 -108 c59 -37 102 -106 108
-176 6 -68 -11 -118 -56 -168 -49 -55 -99 -78 -167 -78 -179 0 -289 175 -207
331 63 121 206 161 322 91z"/>
<path d="M5120 1068 c0 -110 5 -210 11 -233 47 -169 253 -245 401 -149 21 13
41 24 44 24 11 0 -5 -119 -20 -148 -52 -100 -174 -133 -269 -72 -26 16 -47 34
-47 40 0 12 -55 -14 -65 -31 -9 -14 30 -55 83 -86 31 -19 63 -27 113 -31 63
-4 75 -2 133 27 37 18 75 46 90 66 55 72 56 77 56 445 l0 340 -34 0 -34 0 -4
-204 -3 -204 -30 -44 c-81 -115 -237 -115 -316 0 -23 34 -24 43 -27 244 l-3
208 -40 0 -39 0 0 -192z"/>
<path d="M6028 1249 c-147 -23 -252 -151 -252 -304 0 -95 30 -160 101 -225
113 -104 276 -109 383 -13 26 24 51 43 54 43 3 0 6 -25 6 -56 l0 -55 37 3 37
3 0 298 1 297 -40 0 -40 0 3 -45 c2 -25 1 -45 -3 -45 -4 0 -25 16 -47 36 -65
58 -143 79 -240 63z m160 -98 c84 -43 126 -121 120 -222 -7 -120 -85 -200
-205 -207 -84 -6 -141 16 -191 73 -94 107 -78 254 37 337 72 51 161 59 239 19z"/>
<path d="M1852 755 c-45 -63 -82 -120 -82 -128 0 -24 89 -330 98 -339 6 -6 66
6 158 32 247 68 284 80 284 93 0 7 -21 87 -47 179 l-47 168 -130 55 c-72 30
-136 55 -141 55 -6 0 -47 -52 -93 -115z m247 -192 c6 -21 17 -60 26 -88 23
-78 21 -82 -37 -100 -28 -8 -57 -15 -62 -15 -9 0 -66 177 -66 203 0 7 87 35
112 36 12 1 21 -11 27 -36z"/>
</g>
</svg>
